<mxfile modified="2021-02-21T23:48:06.638Z" host="app.diagrams.net" agent="5.0 (Windows NT 10.0; Win64; x64) AppleWebKit/537.36 (KHTML, like Gecko) Chrome/88.0.4324.182 Safari/537.36" etag="t6XesIssn0Z1fI6oM69u" version="14.4.2" type="github">
  <diagram id="Ht1M8jgEwFfnCIfOTk4-" name="Page-1">
    <mxGraphModel dx="5078" dy="2903" grid="1" gridSize="15" guides="1" tooltips="1" connect="1" arrows="1" fold="1" page="1" pageScale="1" pageWidth="827" pageHeight="1169" math="0" shadow="0">
      <root>
        <mxCell id="0" />
        <mxCell id="1" parent="0" />
        <mxCell id="SCVMTBWpLvtzJIhz15lM-1" value="" style="line;strokeWidth=2;html=1;fontSize=14;fillColor=#21C0A5;strokeColor=#006658;fontColor=#5C5C5C;rounded=1;" parent="1" vertex="1">
          <mxGeometry x="22.25" y="943.5" width="1060" height="10" as="geometry" />
        </mxCell>
        <mxCell id="7OVz4w7n9kzEPWy-4BBC-4" value="1" style="whiteSpace=wrap;html=1;strokeColor=none;fontStyle=1;fontSize=22;labelBackgroundColor=none;fillColor=#21C0A5;fontColor=#5C5C5C;rounded=1;" parent="1" vertex="1">
          <mxGeometry x="1169" y="63" width="40" height="38" as="geometry" />
        </mxCell>
        <mxCell id="7OVz4w7n9kzEPWy-4BBC-5" value="2" style="whiteSpace=wrap;html=1;strokeColor=none;fontStyle=1;fontSize=22;labelBackgroundColor=none;fillColor=#21C0A5;fontColor=#5C5C5C;rounded=1;" parent="1" vertex="1">
          <mxGeometry x="1167.5" y="185" width="40" height="38" as="geometry" />
        </mxCell>
        <mxCell id="7OVz4w7n9kzEPWy-4BBC-6" value="3" style="whiteSpace=wrap;html=1;strokeColor=none;fontStyle=1;fontSize=22;labelBackgroundColor=none;fillColor=#21C0A5;fontColor=#5C5C5C;rounded=1;" parent="1" vertex="1">
          <mxGeometry x="1167.5" y="305" width="40" height="38" as="geometry" />
        </mxCell>
        <mxCell id="7OVz4w7n9kzEPWy-4BBC-7" value="4" style="whiteSpace=wrap;html=1;strokeColor=none;fontStyle=1;fontSize=22;labelBackgroundColor=none;fillColor=#21C0A5;fontColor=#5C5C5C;rounded=1;" parent="1" vertex="1">
          <mxGeometry x="1167.5" y="419" width="40" height="38" as="geometry" />
        </mxCell>
        <mxCell id="7OVz4w7n9kzEPWy-4BBC-8" value="5" style="whiteSpace=wrap;html=1;strokeColor=none;fontStyle=1;fontSize=22;labelBackgroundColor=none;fillColor=#21C0A5;fontColor=#5C5C5C;rounded=1;" parent="1" vertex="1">
          <mxGeometry x="1169" y="536" width="40" height="38" as="geometry" />
        </mxCell>
        <mxCell id="7OVz4w7n9kzEPWy-4BBC-9" value="6" style="whiteSpace=wrap;html=1;strokeColor=none;fontStyle=1;fontSize=22;labelBackgroundColor=none;fillColor=#21C0A5;fontColor=#5C5C5C;rounded=1;" parent="1" vertex="1">
          <mxGeometry x="1170" y="651" width="40" height="38" as="geometry" />
        </mxCell>
        <mxCell id="7OVz4w7n9kzEPWy-4BBC-10" value="7" style="whiteSpace=wrap;html=1;strokeColor=none;fontStyle=1;fontSize=22;labelBackgroundColor=none;fillColor=#21C0A5;fontColor=#5C5C5C;rounded=1;" parent="1" vertex="1">
          <mxGeometry x="1169.5" y="767" width="40" height="38" as="geometry" />
        </mxCell>
        <mxCell id="7OVz4w7n9kzEPWy-4BBC-11" value="8" style="whiteSpace=wrap;html=1;strokeColor=none;fontStyle=1;fontSize=22;labelBackgroundColor=none;fillColor=#21C0A5;fontColor=#5C5C5C;rounded=1;" parent="1" vertex="1">
          <mxGeometry x="1170" y="885" width="40" height="38" as="geometry" />
        </mxCell>
        <mxCell id="7OVz4w7n9kzEPWy-4BBC-12" value="9" style="whiteSpace=wrap;html=1;strokeColor=none;fontStyle=1;fontSize=22;labelBackgroundColor=none;fillColor=#21C0A5;fontColor=#5C5C5C;rounded=1;" parent="1" vertex="1">
          <mxGeometry x="1168" y="1005" width="40" height="38" as="geometry" />
        </mxCell>
        <mxCell id="7OVz4w7n9kzEPWy-4BBC-13" value="&lt;span&gt;Lorem ipsum dolor sit amet, consectetur adipiscing elit, sed do eiusmod tempor incididunt ut labore et dolore magna aliqua. Ut enim ad minim veniam, quis nostrud exercitation ullamco laboris nisi ut aliquip ex ea commodo consequat. Duis aute irure dolor in reprehenderit in voluptate velit esse cillum dolore eu fugiat nulla pariatur. Excepteur sint occaecat cupidatat non proident, sunt in culpa qui officia deserunt mollit anim id est laborum.&lt;/span&gt;&lt;br&gt;" style="text;html=1;align=left;verticalAlign=top;spacingTop=-4;fontSize=14;labelBackgroundColor=none;whiteSpace=wrap;fontColor=#5C5C5C;rounded=1;" parent="1" vertex="1">
          <mxGeometry x="1220.5" y="62.5" width="449" height="118" as="geometry" />
        </mxCell>
        <mxCell id="7OVz4w7n9kzEPWy-4BBC-14" value="&lt;span&gt;Lorem ipsum dolor sit amet, consectetur adipiscing elit, sed do eiusmod tempor incididunt ut labore et dolore magna aliqua. Ut enim ad minim veniam, quis nostrud exercitation ullamco laboris nisi ut aliquip ex ea commodo consequat. Duis aute irure dolor in reprehenderit in voluptate velit esse cillum dolore eu fugiat nulla pariatur. Excepteur sint occaecat cupidatat non proident, sunt in culpa qui officia deserunt mollit anim id est laborum.&lt;/span&gt;&lt;br&gt;" style="text;html=1;align=left;verticalAlign=top;spacingTop=-4;fontSize=14;labelBackgroundColor=none;whiteSpace=wrap;fontColor=#5C5C5C;rounded=1;" parent="1" vertex="1">
          <mxGeometry x="1219.5" y="185.5" width="450" height="115" as="geometry" />
        </mxCell>
        <mxCell id="7OVz4w7n9kzEPWy-4BBC-15" value="&lt;span&gt;Lorem ipsum dolor sit amet, consectetur adipiscing elit, sed do eiusmod tempor incididunt ut labore et dolore magna aliqua. Ut enim ad minim veniam, quis nostrud exercitation ullamco laboris nisi ut aliquip ex ea commodo consequat. Duis aute irure dolor in reprehenderit in voluptate velit esse cillum dolore eu fugiat nulla pariatur. Excepteur sint occaecat cupidatat non proident, sunt in culpa qui officia deserunt mollit anim id est laborum.&lt;/span&gt;&lt;br&gt;" style="text;html=1;align=left;verticalAlign=top;spacingTop=-4;fontSize=14;labelBackgroundColor=none;whiteSpace=wrap;fontColor=#5C5C5C;rounded=1;" parent="1" vertex="1">
          <mxGeometry x="1219.5" y="303.5" width="450" height="117" as="geometry" />
        </mxCell>
        <mxCell id="7OVz4w7n9kzEPWy-4BBC-16" value="&lt;span&gt;Lorem ipsum dolor sit amet, consectetur adipiscing elit, sed do eiusmod tempor incididunt ut labore et dolore magna aliqua. Ut enim ad minim veniam, quis nostrud exercitation ullamco laboris nisi ut aliquip ex ea commodo consequat. Duis aute irure dolor in reprehenderit in voluptate velit esse cillum dolore eu fugiat nulla pariatur. Excepteur sint occaecat cupidatat non proident, sunt in culpa qui officia deserunt mollit anim id est laborum.&lt;/span&gt;&lt;br&gt;" style="text;html=1;align=left;verticalAlign=top;spacingTop=-4;fontSize=14;labelBackgroundColor=none;whiteSpace=wrap;fontColor=#5C5C5C;rounded=1;" parent="1" vertex="1">
          <mxGeometry x="1219.5" y="419.5" width="450" height="121" as="geometry" />
        </mxCell>
        <mxCell id="7OVz4w7n9kzEPWy-4BBC-17" value="&lt;span&gt;Lorem ipsum dolor sit amet, consectetur adipiscing elit, sed do eiusmod tempor incididunt ut labore et dolore magna aliqua. Ut enim ad minim veniam, quis nostrud exercitation ullamco laboris nisi ut aliquip ex ea commodo consequat. Duis aute irure dolor in reprehenderit in voluptate velit esse cillum dolore eu fugiat nulla pariatur. Excepteur sint occaecat cupidatat non proident, sunt in culpa qui officia deserunt mollit anim id est laborum.&lt;/span&gt;&lt;br&gt;" style="text;html=1;align=left;verticalAlign=top;spacingTop=-4;fontSize=14;labelBackgroundColor=none;whiteSpace=wrap;fontColor=#5C5C5C;rounded=1;" parent="1" vertex="1">
          <mxGeometry x="1220.5" y="536.5" width="449" height="114" as="geometry" />
        </mxCell>
        <mxCell id="7OVz4w7n9kzEPWy-4BBC-18" value="&lt;span&gt;Lorem ipsum dolor sit amet, consectetur adipiscing elit, sed do eiusmod tempor incididunt ut labore et dolore magna aliqua. Ut enim ad minim veniam, quis nostrud exercitation ullamco laboris nisi ut aliquip ex ea commodo consequat. Duis aute irure dolor in reprehenderit in voluptate velit esse cillum dolore eu fugiat nulla pariatur. Excepteur sint occaecat cupidatat non proident, sunt in culpa qui officia deserunt mollit anim id est laborum.&lt;/span&gt;&lt;br&gt;" style="text;html=1;align=left;verticalAlign=top;spacingTop=-4;fontSize=14;labelBackgroundColor=none;whiteSpace=wrap;fontColor=#5C5C5C;rounded=1;" parent="1" vertex="1">
          <mxGeometry x="1220.5" y="652.5" width="450" height="118" as="geometry" />
        </mxCell>
        <mxCell id="7OVz4w7n9kzEPWy-4BBC-19" value="&lt;span&gt;Lorem ipsum dolor sit amet, consectetur adipiscing elit, sed do eiusmod tempor incididunt ut labore et dolore magna aliqua. Ut enim ad minim veniam, quis nostrud exercitation ullamco laboris nisi ut aliquip ex ea commodo consequat. Duis aute irure dolor in reprehenderit in voluptate velit esse cillum dolore eu fugiat nulla pariatur. Excepteur sint occaecat cupidatat non proident, sunt in culpa qui officia deserunt mollit anim id est laborum.&lt;/span&gt;&lt;br&gt;" style="text;html=1;align=left;verticalAlign=top;spacingTop=-4;fontSize=14;labelBackgroundColor=none;whiteSpace=wrap;fontColor=#5C5C5C;rounded=1;" parent="1" vertex="1">
          <mxGeometry x="1220.5" y="767.5" width="449" height="113" as="geometry" />
        </mxCell>
        <mxCell id="7OVz4w7n9kzEPWy-4BBC-20" value="&lt;span&gt;Lorem ipsum dolor sit amet, consectetur adipiscing elit, sed do eiusmod tempor incididunt ut labore et dolore magna aliqua. Ut enim ad minim veniam, quis nostrud exercitation ullamco laboris nisi ut aliquip ex ea commodo consequat. Duis aute irure dolor in reprehenderit in voluptate velit esse cillum dolore eu fugiat nulla pariatur. Excepteur sint occaecat cupidatat non proident, sunt in culpa qui officia deserunt mollit anim id est laborum.&lt;/span&gt;&lt;br&gt;" style="text;html=1;align=left;verticalAlign=top;spacingTop=-4;fontSize=14;labelBackgroundColor=none;whiteSpace=wrap;fontColor=#5C5C5C;rounded=1;" parent="1" vertex="1">
          <mxGeometry x="1220.5" y="886.5" width="449" height="124" as="geometry" />
        </mxCell>
        <mxCell id="7OVz4w7n9kzEPWy-4BBC-21" value="&lt;span&gt;Lorem ipsum dolor sit amet, consectetur adipiscing elit, sed do eiusmod tempor incididunt ut labore et dolore magna aliqua. Ut enim ad minim veniam, quis nostrud exercitation ullamco laboris nisi ut aliquip ex ea commodo consequat. Duis aute irure dolor in reprehenderit in voluptate velit esse cillum dolore eu fugiat nulla pariatur. Excepteur sint occaecat cupidatat non proident, sunt in culpa qui officia deserunt mollit anim id est laborum.&lt;/span&gt;&lt;br&gt;" style="text;html=1;align=left;verticalAlign=top;spacingTop=-4;fontSize=14;labelBackgroundColor=none;whiteSpace=wrap;fontColor=#5C5C5C;rounded=1;" parent="1" vertex="1">
          <mxGeometry x="1220.5" y="1005.5" width="449" height="115" as="geometry" />
        </mxCell>
        <mxCell id="7OVz4w7n9kzEPWy-4BBC-22" value="10" style="whiteSpace=wrap;html=1;strokeColor=none;fontStyle=1;fontSize=22;labelBackgroundColor=none;fillColor=#21C0A5;fontColor=#5C5C5C;rounded=1;" parent="1" vertex="1">
          <mxGeometry x="1169" y="1130.5" width="40" height="38" as="geometry" />
        </mxCell>
        <mxCell id="7OVz4w7n9kzEPWy-4BBC-23" value="&lt;span&gt;Lorem ipsum dolor sit amet, consectetur adipiscing elit, sed do eiusmod tempor incididunt ut labore et dolore magna aliqua. Ut enim ad minim veniam, quis nostrud exercitation ullamco laboris nisi ut aliquip ex ea commodo consequat. Duis aute irure dolor in reprehenderit in voluptate velit esse cillum dolore eu fugiat nulla pariatur. Excepteur sint occaecat cupidatat non proident, sunt in culpa qui officia deserunt mollit anim id est laborum.&lt;/span&gt;&lt;br&gt;" style="text;html=1;align=left;verticalAlign=top;spacingTop=-4;fontSize=14;labelBackgroundColor=none;whiteSpace=wrap;fontColor=#5C5C5C;rounded=1;" parent="1" vertex="1">
          <mxGeometry x="1221.5" y="1131" width="449" height="115" as="geometry" />
        </mxCell>
        <mxCell id="6ClH8MUro_-HS9Rw8stD-7" value="" style="whiteSpace=wrap;html=1;aspect=fixed;fillColor=#dae8fc;strokeColor=#6c8ebf;rounded=1;" parent="1" vertex="1">
          <mxGeometry x="460" y="-645" width="420" height="420" as="geometry" />
        </mxCell>
        <mxCell id="6ClH8MUro_-HS9Rw8stD-15" value="first choice" style="shape=parallelogram;perimeter=parallelogramPerimeter;whiteSpace=wrap;html=1;fixedSize=1;rounded=1;" parent="1" vertex="1">
          <mxGeometry x="482.5" y="-1095" width="125" height="60" as="geometry" />
        </mxCell>
        <mxCell id="eziSc1TBYM_mBGqKbZxS-26" style="edgeStyle=orthogonalEdgeStyle;rounded=0;orthogonalLoop=1;jettySize=auto;html=1;" edge="1" parent="1" source="6ClH8MUro_-HS9Rw8stD-16">
          <mxGeometry relative="1" as="geometry">
            <mxPoint x="1095" y="-930" as="targetPoint" />
          </mxGeometry>
        </mxCell>
        <mxCell id="6ClH8MUro_-HS9Rw8stD-16" value="second&lt;br&gt;choice" style="shape=parallelogram;perimeter=parallelogramPerimeter;whiteSpace=wrap;html=1;fixedSize=1;rounded=1;" parent="1" vertex="1">
          <mxGeometry x="721.5" y="-1095" width="120" height="60" as="geometry" />
        </mxCell>
        <mxCell id="6ClH8MUro_-HS9Rw8stD-25" value="" style="whiteSpace=wrap;html=1;aspect=fixed;fillColor=#21C0A5;strokeColor=#006658;fontColor=#5C5C5C;rounded=1;" parent="1" vertex="1">
          <mxGeometry x="641.5" y="-630" width="80" height="80" as="geometry" />
        </mxCell>
        <mxCell id="6ClH8MUro_-HS9Rw8stD-26" value="" style="whiteSpace=wrap;html=1;aspect=fixed;rounded=1;" parent="1" vertex="1">
          <mxGeometry x="512.25" y="-624" width="80" height="80" as="geometry" />
        </mxCell>
        <mxCell id="6ClH8MUro_-HS9Rw8stD-27" value="" style="whiteSpace=wrap;html=1;aspect=fixed;fillColor=#21C0A5;strokeColor=#006658;fontColor=#5C5C5C;rounded=1;" parent="1" vertex="1">
          <mxGeometry x="770" y="-630" width="80" height="80" as="geometry" />
        </mxCell>
        <mxCell id="6ClH8MUro_-HS9Rw8stD-28" value="" style="whiteSpace=wrap;html=1;aspect=fixed;fillColor=#21C0A5;strokeColor=#006658;fontColor=#5C5C5C;rounded=1;" parent="1" vertex="1">
          <mxGeometry x="505" y="-493" width="80" height="80" as="geometry" />
        </mxCell>
        <mxCell id="6ClH8MUro_-HS9Rw8stD-29" value="" style="whiteSpace=wrap;html=1;aspect=fixed;rounded=1;" parent="1" vertex="1">
          <mxGeometry x="642" y="-490" width="80" height="80" as="geometry" />
        </mxCell>
        <mxCell id="6ClH8MUro_-HS9Rw8stD-30" value="" style="whiteSpace=wrap;html=1;aspect=fixed;fillColor=#21C0A5;strokeColor=#006658;fontColor=#5C5C5C;rounded=1;" parent="1" vertex="1">
          <mxGeometry x="770" y="-490" width="80" height="80" as="geometry" />
        </mxCell>
        <mxCell id="6ClH8MUro_-HS9Rw8stD-31" value="" style="whiteSpace=wrap;html=1;aspect=fixed;fillColor=#21C0A5;strokeColor=#006658;fontColor=#5C5C5C;rounded=1;" parent="1" vertex="1">
          <mxGeometry x="502.5" y="-360" width="80" height="80" as="geometry" />
        </mxCell>
        <mxCell id="6ClH8MUro_-HS9Rw8stD-32" value="" style="whiteSpace=wrap;html=1;aspect=fixed;fillColor=#21C0A5;strokeColor=#006658;fontColor=#5C5C5C;rounded=1;" parent="1" vertex="1">
          <mxGeometry x="642" y="-360" width="80" height="80" as="geometry" />
        </mxCell>
        <mxCell id="6ClH8MUro_-HS9Rw8stD-33" value="" style="whiteSpace=wrap;html=1;aspect=fixed;fillColor=#21C0A5;strokeColor=#006658;fontColor=#5C5C5C;rounded=1;" parent="1" vertex="1">
          <mxGeometry x="770" y="-360" width="80" height="80" as="geometry" />
        </mxCell>
        <mxCell id="eziSc1TBYM_mBGqKbZxS-57" style="edgeStyle=orthogonalEdgeStyle;rounded=0;orthogonalLoop=1;jettySize=auto;html=1;entryX=0.093;entryY=-0.003;entryDx=0;entryDy=0;entryPerimeter=0;" edge="1" parent="1" source="6ClH8MUro_-HS9Rw8stD-135" target="6ClH8MUro_-HS9Rw8stD-7">
          <mxGeometry relative="1" as="geometry" />
        </mxCell>
        <mxCell id="eziSc1TBYM_mBGqKbZxS-60" style="edgeStyle=orthogonalEdgeStyle;rounded=0;orthogonalLoop=1;jettySize=auto;html=1;entryX=0.482;entryY=-0.119;entryDx=0;entryDy=0;entryPerimeter=0;" edge="1" parent="1" source="6ClH8MUro_-HS9Rw8stD-41" target="eziSc1TBYM_mBGqKbZxS-41">
          <mxGeometry relative="1" as="geometry" />
        </mxCell>
        <mxCell id="6ClH8MUro_-HS9Rw8stD-41" value="Actor" style="shape=umlActor;verticalLabelPosition=bottom;verticalAlign=top;html=1;outlineConnect=0;fillColor=#a20025;strokeColor=#6F0000;fontColor=#ffffff;rounded=1;" parent="1" vertex="1">
          <mxGeometry x="-103.5" y="-960" width="76.5" height="139" as="geometry" />
        </mxCell>
        <mxCell id="eziSc1TBYM_mBGqKbZxS-21" style="edgeStyle=orthogonalEdgeStyle;rounded=0;orthogonalLoop=1;jettySize=auto;html=1;" edge="1" parent="1" source="6ClH8MUro_-HS9Rw8stD-42">
          <mxGeometry relative="1" as="geometry">
            <mxPoint x="615" y="-765" as="targetPoint" />
          </mxGeometry>
        </mxCell>
        <mxCell id="6ClH8MUro_-HS9Rw8stD-42" value="" style="ellipse;shape=cloud;whiteSpace=wrap;html=1;strokeColor=#006658;fontColor=#5C5C5C;rounded=1;fillColor=#33FFFF;" parent="1" vertex="1">
          <mxGeometry x="520" y="-600" width="50" height="30" as="geometry" />
        </mxCell>
        <mxCell id="6ClH8MUro_-HS9Rw8stD-44" value="" style="ellipse;shape=cloud;whiteSpace=wrap;html=1;strokeColor=#006658;fontColor=#5C5C5C;rounded=1;fillColor=#33FFFF;" parent="1" vertex="1">
          <mxGeometry x="505" y="-1110" width="88.5" height="40" as="geometry" />
        </mxCell>
        <mxCell id="eziSc1TBYM_mBGqKbZxS-22" style="edgeStyle=orthogonalEdgeStyle;rounded=0;orthogonalLoop=1;jettySize=auto;html=1;" edge="1" parent="1" source="6ClH8MUro_-HS9Rw8stD-47">
          <mxGeometry relative="1" as="geometry">
            <mxPoint x="690" y="-765" as="targetPoint" />
          </mxGeometry>
        </mxCell>
        <mxCell id="6ClH8MUro_-HS9Rw8stD-47" value="" style="shape=tape;whiteSpace=wrap;html=1;strokeColor=#006658;fontColor=#5C5C5C;rounded=1;fillColor=#33FFFF;" parent="1" vertex="1">
          <mxGeometry x="660" y="-480" width="50" height="50" as="geometry" />
        </mxCell>
        <mxCell id="6ClH8MUro_-HS9Rw8stD-49" value="" style="shape=tape;whiteSpace=wrap;html=1;strokeColor=#006658;fontColor=#5C5C5C;rounded=1;fillColor=#66FFFF;" parent="1" vertex="1">
          <mxGeometry x="751.5" y="-1130" width="60" height="60" as="geometry" />
        </mxCell>
        <mxCell id="6ClH8MUro_-HS9Rw8stD-51" value="&lt;font style=&quot;font-size: 19px&quot;&gt;second&lt;/font&gt;&lt;br&gt;&lt;font style=&quot;font-size: 21px&quot;&gt;&lt;b&gt;&lt;i&gt;choice&lt;/i&gt;&lt;/b&gt;&lt;/font&gt;" style="shape=parallelogram;perimeter=parallelogramPerimeter;whiteSpace=wrap;html=1;fixedSize=1;rounded=1;" parent="1" vertex="1">
          <mxGeometry x="660" y="-90" width="120" height="60" as="geometry" />
        </mxCell>
        <mxCell id="6ClH8MUro_-HS9Rw8stD-52" value="&lt;font style=&quot;font-size: 17px&quot;&gt;&lt;b&gt;first choice&lt;/b&gt;&lt;/font&gt;" style="shape=parallelogram;perimeter=parallelogramPerimeter;whiteSpace=wrap;html=1;fixedSize=1;rounded=1;" parent="1" vertex="1">
          <mxGeometry x="512.25" y="-90" width="120" height="60" as="geometry" />
        </mxCell>
        <mxCell id="6ClH8MUro_-HS9Rw8stD-61" value="true" style="text;html=1;align=center;verticalAlign=middle;resizable=0;points=[];autosize=1;rounded=1;fillColor=#33FF33;perimeterSpacing=10;glass=0;fontSize=27;" parent="1" vertex="1">
          <mxGeometry x="315" y="135.5" width="75" height="45" as="geometry" />
        </mxCell>
        <mxCell id="6ClH8MUro_-HS9Rw8stD-62" value="false" style="text;html=1;align=center;verticalAlign=middle;resizable=0;points=[];autosize=1;fontColor=#5C5C5C;rounded=1;fillColor=#D269FF;fontSize=28;" parent="1" vertex="1">
          <mxGeometry x="894" y="135.5" width="75" height="45" as="geometry" />
        </mxCell>
        <mxCell id="eziSc1TBYM_mBGqKbZxS-10" style="edgeStyle=orthogonalEdgeStyle;rounded=0;orthogonalLoop=1;jettySize=auto;html=1;" edge="1" parent="1" source="6ClH8MUro_-HS9Rw8stD-63">
          <mxGeometry relative="1" as="geometry">
            <mxPoint x="225" y="269.99999999999955" as="targetPoint" />
          </mxGeometry>
        </mxCell>
        <mxCell id="6ClH8MUro_-HS9Rw8stD-63" value="&lt;h1&gt;&lt;font style=&quot;font-size: 34px&quot;&gt;card open&lt;/font&gt;&lt;/h1&gt;" style="text;html=1;strokeColor=none;fillColor=none;spacing=5;spacingTop=-20;whiteSpace=wrap;overflow=hidden;rounded=0;fontColor=#5C5C5C;" parent="1" vertex="1">
          <mxGeometry x="240" y="197.5" width="180" height="42.5" as="geometry" />
        </mxCell>
        <mxCell id="eziSc1TBYM_mBGqKbZxS-35" style="edgeStyle=orthogonalEdgeStyle;rounded=0;orthogonalLoop=1;jettySize=auto;html=1;" edge="1" parent="1" source="6ClH8MUro_-HS9Rw8stD-74">
          <mxGeometry relative="1" as="geometry">
            <mxPoint x="913" y="705" as="targetPoint" />
          </mxGeometry>
        </mxCell>
        <mxCell id="6ClH8MUro_-HS9Rw8stD-74" value="&lt;h1&gt;&lt;font style=&quot;font-size: 33px&quot;&gt;flip card&lt;/font&gt;&lt;/h1&gt;" style="text;html=1;strokeColor=none;fillColor=none;spacing=5;spacingTop=-20;whiteSpace=wrap;overflow=hidden;rounded=0;fontColor=#5C5C5C;" parent="1" vertex="1">
          <mxGeometry x="870" y="210" width="150" height="47" as="geometry" />
        </mxCell>
        <mxCell id="6ClH8MUro_-HS9Rw8stD-76" value="&lt;span style=&quot;font-size: 21px&quot;&gt;score:0&lt;/span&gt;" style="text;html=1;strokeColor=none;fillColor=none;align=center;verticalAlign=middle;whiteSpace=wrap;rounded=0;glass=0;fontSize=28;fontColor=#000000;fontStyle=1" parent="1" vertex="1">
          <mxGeometry x="1035" y="-570" width="55" height="17" as="geometry" />
        </mxCell>
        <mxCell id="6ClH8MUro_-HS9Rw8stD-77" value="&lt;h1&gt;steps:0&lt;/h1&gt;" style="text;html=1;strokeColor=none;fillColor=none;spacing=5;spacingTop=-20;whiteSpace=wrap;overflow=hidden;rounded=0;fontColor=#5C5C5C;" parent="1" vertex="1">
          <mxGeometry x="1020" y="-540" width="128.5" height="30" as="geometry" />
        </mxCell>
        <mxCell id="6ClH8MUro_-HS9Rw8stD-78" value="&lt;h1&gt;&lt;font style=&quot;font-size: 43px&quot;&gt;timer: 00:00&lt;/font&gt;&lt;/h1&gt;" style="text;html=1;strokeColor=none;fillColor=none;spacing=5;spacingTop=-20;whiteSpace=wrap;overflow=hidden;rounded=0;fontColor=#5C5C5C;" parent="1" vertex="1">
          <mxGeometry x="1005.75" y="-493" width="239.25" height="133" as="geometry" />
        </mxCell>
        <mxCell id="6ClH8MUro_-HS9Rw8stD-81" value="clear both variables first and second" style="text;html=1;strokeColor=none;fillColor=none;align=center;verticalAlign=middle;whiteSpace=wrap;rounded=0;glass=0;fontSize=24;fontColor=#000000;" parent="1" vertex="1">
          <mxGeometry x="710" y="720" width="405" height="25" as="geometry" />
        </mxCell>
        <mxCell id="6ClH8MUro_-HS9Rw8stD-82" value="first choice" style="shape=parallelogram;perimeter=parallelogramPerimeter;whiteSpace=wrap;html=1;fixedSize=1;rounded=1;" parent="1" vertex="1">
          <mxGeometry x="730" y="767" width="120" height="60" as="geometry" />
        </mxCell>
        <mxCell id="6ClH8MUro_-HS9Rw8stD-83" value="second&lt;br&gt;choice" style="shape=parallelogram;perimeter=parallelogramPerimeter;whiteSpace=wrap;html=1;fixedSize=1;rounded=1;" parent="1" vertex="1">
          <mxGeometry x="945" y="767" width="120" height="60" as="geometry" />
        </mxCell>
        <mxCell id="6ClH8MUro_-HS9Rw8stD-92" value="contStepFunc" style="shape=hexagon;perimeter=hexagonPerimeter2;whiteSpace=wrap;html=1;fixedSize=1;rounded=1;glass=0;strokeColor=#A50040;fontSize=24;fontColor=#ffffff;fillColor=#33FFFF;" parent="1" vertex="1">
          <mxGeometry x="1005.75" y="-915" width="180" height="75" as="geometry" />
        </mxCell>
        <mxCell id="6ClH8MUro_-HS9Rw8stD-98" value="cntTimeFunc" style="shape=hexagon;perimeter=hexagonPerimeter2;whiteSpace=wrap;html=1;fixedSize=1;rounded=1;glass=0;strokeColor=#001DBC;fillColor=#0050ef;fontSize=24;fontColor=#ffffff;" parent="1" vertex="1">
          <mxGeometry x="-810" y="-365" width="158" height="80" as="geometry" />
        </mxCell>
        <mxCell id="eziSc1TBYM_mBGqKbZxS-65" style="edgeStyle=orthogonalEdgeStyle;rounded=0;orthogonalLoop=1;jettySize=auto;html=1;exitX=0;exitY=0.5;exitDx=0;exitDy=0;" edge="1" parent="1" source="6ClH8MUro_-HS9Rw8stD-99">
          <mxGeometry relative="1" as="geometry">
            <mxPoint x="-645.0000000000005" y="-334.4285714285711" as="targetPoint" />
          </mxGeometry>
        </mxCell>
        <mxCell id="6ClH8MUro_-HS9Rw8stD-99" value="scoreFunc" style="shape=hexagon;perimeter=hexagonPerimeter2;whiteSpace=wrap;html=1;fixedSize=1;rounded=1;glass=0;strokeColor=#006658;gradientColor=none;fontSize=24;fontColor=#000000;fillColor=#FFC130;" parent="1" vertex="1">
          <mxGeometry x="-569" y="-375" width="156" height="80" as="geometry" />
        </mxCell>
        <mxCell id="6ClH8MUro_-HS9Rw8stD-100" value="&lt;h1 style=&quot;font-size: 19px;&quot;&gt;Prevent the possibility of opening the same card&lt;br style=&quot;font-size: 19px;&quot;&gt;&lt;/h1&gt;" style="text;html=1;strokeColor=none;fillColor=none;spacing=5;spacingTop=-20;whiteSpace=wrap;overflow=hidden;rounded=0;glass=0;fontSize=19;fontColor=#000000;" parent="1" vertex="1">
          <mxGeometry x="135" y="-333" width="255" height="48" as="geometry" />
        </mxCell>
        <mxCell id="6ClH8MUro_-HS9Rw8stD-101" value="&lt;font style=&quot;font-size: 32px&quot;&gt;&lt;b&gt;gameStatusFunc&lt;/b&gt;&lt;/font&gt;" style="shape=cylinder3;whiteSpace=wrap;html=1;boundedLbl=1;backgroundOutline=1;size=15;rounded=1;glass=0;strokeColor=#006658;gradientColor=none;fontSize=19;fontColor=#000000;fillColor=#EED4FF;" parent="1" vertex="1">
          <mxGeometry x="90" y="283.5" width="290" height="81" as="geometry" />
        </mxCell>
        <mxCell id="eziSc1TBYM_mBGqKbZxS-3" style="edgeStyle=orthogonalEdgeStyle;rounded=0;orthogonalLoop=1;jettySize=auto;html=1;" edge="1" parent="1" source="6ClH8MUro_-HS9Rw8stD-105">
          <mxGeometry relative="1" as="geometry">
            <mxPoint y="525" as="targetPoint" />
          </mxGeometry>
        </mxCell>
        <mxCell id="eziSc1TBYM_mBGqKbZxS-5" style="edgeStyle=orthogonalEdgeStyle;rounded=0;orthogonalLoop=1;jettySize=auto;html=1;" edge="1" parent="1" source="6ClH8MUro_-HS9Rw8stD-105">
          <mxGeometry relative="1" as="geometry">
            <mxPoint x="520" y="555" as="targetPoint" />
          </mxGeometry>
        </mxCell>
        <mxCell id="6ClH8MUro_-HS9Rw8stD-105" value="&lt;font style=&quot;font-size: 39px&quot;&gt;if have cards to open?&lt;/font&gt;" style="text;html=1;strokeColor=none;fillColor=none;align=center;verticalAlign=middle;whiteSpace=wrap;rounded=0;glass=0;fontSize=24;fontColor=#000000;fontStyle=6" parent="1" vertex="1">
          <mxGeometry x="34.879999999999995" y="390" width="405.25" height="45" as="geometry" />
        </mxCell>
        <mxCell id="eziSc1TBYM_mBGqKbZxS-69" style="edgeStyle=orthogonalEdgeStyle;rounded=0;orthogonalLoop=1;jettySize=auto;html=1;entryX=0.463;entryY=1.19;entryDx=0;entryDy=0;entryPerimeter=0;" edge="1" parent="1" source="6ClH8MUro_-HS9Rw8stD-108" target="eziSc1TBYM_mBGqKbZxS-41">
          <mxGeometry relative="1" as="geometry" />
        </mxCell>
        <mxCell id="6ClH8MUro_-HS9Rw8stD-108" value="&lt;font style=&quot;font-size: 30px&quot;&gt;&lt;b&gt;&lt;i&gt;show game over screen&lt;/i&gt;&lt;/b&gt;&lt;/font&gt;" style="shape=cylinder3;whiteSpace=wrap;html=1;boundedLbl=1;backgroundOutline=1;size=15;rounded=1;glass=0;strokeColor=#6F0000;fontSize=19;fontColor=#ffffff;fillColor=#a20025;" parent="1" vertex="1">
          <mxGeometry x="-103.5" y="787" width="210" height="93.5" as="geometry" />
        </mxCell>
        <mxCell id="eziSc1TBYM_mBGqKbZxS-63" style="edgeStyle=orthogonalEdgeStyle;rounded=0;orthogonalLoop=1;jettySize=auto;html=1;entryX=0.5;entryY=0;entryDx=0;entryDy=0;" edge="1" parent="1" source="6ClH8MUro_-HS9Rw8stD-110" target="6ClH8MUro_-HS9Rw8stD-99">
          <mxGeometry relative="1" as="geometry" />
        </mxCell>
        <mxCell id="eziSc1TBYM_mBGqKbZxS-68" style="edgeStyle=orthogonalEdgeStyle;rounded=0;orthogonalLoop=1;jettySize=auto;html=1;entryX=1;entryY=0.5;entryDx=0;entryDy=0;" edge="1" parent="1" source="6ClH8MUro_-HS9Rw8stD-110" target="6ClH8MUro_-HS9Rw8stD-125">
          <mxGeometry relative="1" as="geometry" />
        </mxCell>
        <mxCell id="6ClH8MUro_-HS9Rw8stD-110" value="start" style="shape=cylinder3;whiteSpace=wrap;html=1;boundedLbl=1;backgroundOutline=1;size=15;rounded=1;glass=0;strokeColor=#006EAF;fillColor=#1ba1e2;fontSize=19;fontColor=#ffffff;" parent="1" vertex="1">
          <mxGeometry x="-450" y="-507.5" width="120" height="75" as="geometry" />
        </mxCell>
        <mxCell id="eziSc1TBYM_mBGqKbZxS-31" style="edgeStyle=orthogonalEdgeStyle;rounded=0;orthogonalLoop=1;jettySize=auto;html=1;" edge="1" parent="1" source="6ClH8MUro_-HS9Rw8stD-119">
          <mxGeometry relative="1" as="geometry">
            <mxPoint x="375" y="120" as="targetPoint" />
          </mxGeometry>
        </mxCell>
        <mxCell id="eziSc1TBYM_mBGqKbZxS-32" style="edgeStyle=orthogonalEdgeStyle;rounded=0;orthogonalLoop=1;jettySize=auto;html=1;" edge="1" parent="1" source="6ClH8MUro_-HS9Rw8stD-119">
          <mxGeometry relative="1" as="geometry">
            <mxPoint x="930" y="135" as="targetPoint" />
          </mxGeometry>
        </mxCell>
        <mxCell id="6ClH8MUro_-HS9Rw8stD-119" value="&lt;font style=&quot;font-size: 33px&quot;&gt;After 2 steps choose if they are equal&lt;/font&gt;" style="text;html=1;align=center;verticalAlign=middle;resizable=0;points=[];autosize=1;fontColor=#5C5C5C;rounded=1;fontSize=22;fontStyle=7" parent="1" vertex="1">
          <mxGeometry x="354" y="-22" width="615" height="45" as="geometry" />
        </mxCell>
        <mxCell id="eziSc1TBYM_mBGqKbZxS-66" style="edgeStyle=orthogonalEdgeStyle;rounded=0;orthogonalLoop=1;jettySize=auto;html=1;entryX=0.145;entryY=0;entryDx=0;entryDy=4.35;entryPerimeter=0;" edge="1" parent="1" source="6ClH8MUro_-HS9Rw8stD-125" target="6ClH8MUro_-HS9Rw8stD-110">
          <mxGeometry relative="1" as="geometry" />
        </mxCell>
        <mxCell id="6ClH8MUro_-HS9Rw8stD-125" value="random" style="shape=hexagon;perimeter=hexagonPerimeter2;whiteSpace=wrap;html=1;fixedSize=1;rounded=1;glass=0;strokeColor=#006658;gradientColor=none;fontSize=24;fontColor=#000000;fillColor=#F5F500;" parent="1" vertex="1">
          <mxGeometry x="-495" y="-704" width="120" height="80" as="geometry" />
        </mxCell>
        <mxCell id="eziSc1TBYM_mBGqKbZxS-36" style="edgeStyle=orthogonalEdgeStyle;rounded=0;orthogonalLoop=1;jettySize=auto;html=1;" edge="1" parent="1" source="6ClH8MUro_-HS9Rw8stD-146">
          <mxGeometry relative="1" as="geometry">
            <mxPoint x="779" y="690" as="targetPoint" />
          </mxGeometry>
        </mxCell>
        <mxCell id="6ClH8MUro_-HS9Rw8stD-146" value="true" style="text;html=1;align=center;verticalAlign=middle;resizable=0;points=[];autosize=1;rounded=1;fillColor=#33FF33;perimeterSpacing=10;glass=0;fontSize=27;" parent="1" vertex="1">
          <mxGeometry x="495" y="599" width="75" height="45" as="geometry" />
        </mxCell>
        <mxCell id="eziSc1TBYM_mBGqKbZxS-39" style="edgeStyle=orthogonalEdgeStyle;rounded=0;orthogonalLoop=1;jettySize=auto;html=1;" edge="1" parent="1" source="6ClH8MUro_-HS9Rw8stD-147">
          <mxGeometry relative="1" as="geometry">
            <mxPoint x="8" y="750" as="targetPoint" />
          </mxGeometry>
        </mxCell>
        <mxCell id="6ClH8MUro_-HS9Rw8stD-147" value="false" style="text;html=1;align=center;verticalAlign=middle;resizable=0;points=[];autosize=1;fontColor=#5C5C5C;rounded=1;fillColor=#D269FF;fontSize=28;" parent="1" vertex="1">
          <mxGeometry x="-30" y="584" width="75" height="45" as="geometry" />
        </mxCell>
        <mxCell id="eziSc1TBYM_mBGqKbZxS-23" style="edgeStyle=orthogonalEdgeStyle;rounded=0;orthogonalLoop=1;jettySize=auto;html=1;entryX=0.5;entryY=1;entryDx=0;entryDy=0;exitX=0.124;exitY=-0.013;exitDx=0;exitDy=0;exitPerimeter=0;" edge="1" parent="1" source="6ClH8MUro_-HS9Rw8stD-164" target="6ClH8MUro_-HS9Rw8stD-15">
          <mxGeometry relative="1" as="geometry">
            <mxPoint x="540" y="-1005" as="targetPoint" />
          </mxGeometry>
        </mxCell>
        <mxCell id="eziSc1TBYM_mBGqKbZxS-24" style="edgeStyle=orthogonalEdgeStyle;rounded=0;orthogonalLoop=1;jettySize=auto;html=1;entryX=0.564;entryY=1.08;entryDx=0;entryDy=0;entryPerimeter=0;exitX=0.75;exitY=0;exitDx=0;exitDy=0;" edge="1" parent="1" source="6ClH8MUro_-HS9Rw8stD-164" target="6ClH8MUro_-HS9Rw8stD-16">
          <mxGeometry relative="1" as="geometry">
            <mxPoint x="795" y="-990" as="targetPoint" />
          </mxGeometry>
        </mxCell>
        <mxCell id="6ClH8MUro_-HS9Rw8stD-164" value="&lt;h1&gt;&lt;font style=&quot;font-size: 41px&quot;&gt;flip card&lt;/font&gt;&lt;/h1&gt;" style="text;html=1;strokeColor=none;fillColor=none;spacing=5;spacingTop=-20;whiteSpace=wrap;overflow=hidden;rounded=0;fontColor=#5C5C5C;fontSize=19;fontStyle=2" parent="1" vertex="1">
          <mxGeometry x="574" y="-855" width="180" height="60" as="geometry" />
        </mxCell>
        <mxCell id="eziSc1TBYM_mBGqKbZxS-25" value="&lt;font style=&quot;font-size: 27px&quot;&gt;put card in var&lt;/font&gt;" style="text;html=1;align=center;verticalAlign=middle;resizable=0;points=[];autosize=1;" vertex="1" parent="1">
          <mxGeometry x="570" y="-990" width="195" height="30" as="geometry" />
        </mxCell>
        <mxCell id="eziSc1TBYM_mBGqKbZxS-33" style="edgeStyle=orthogonalEdgeStyle;rounded=0;orthogonalLoop=1;jettySize=auto;html=1;" edge="1" parent="1" source="eziSc1TBYM_mBGqKbZxS-28">
          <mxGeometry relative="1" as="geometry">
            <mxPoint x="650" y="-120" as="targetPoint" />
            <Array as="points">
              <mxPoint x="650" y="-120" />
              <mxPoint x="650" y="-120" />
            </Array>
          </mxGeometry>
        </mxCell>
        <mxCell id="eziSc1TBYM_mBGqKbZxS-28" value="&lt;font style=&quot;font-size: 34px&quot;&gt;&lt;b&gt;lock&amp;nbsp; &lt;font style=&quot;font-size: 34px&quot;&gt;screen&lt;/font&gt; clicks&lt;/b&gt;&lt;/font&gt;" style="text;html=1;align=center;verticalAlign=middle;resizable=0;points=[];autosize=1;" vertex="1" parent="1">
          <mxGeometry x="485" y="-185" width="330" height="30" as="geometry" />
        </mxCell>
        <mxCell id="eziSc1TBYM_mBGqKbZxS-62" value="" style="edgeStyle=orthogonalEdgeStyle;rounded=0;orthogonalLoop=1;jettySize=auto;html=1;entryX=1;entryY=0;entryDx=0;entryDy=48.75;entryPerimeter=0;" edge="1" parent="1" source="eziSc1TBYM_mBGqKbZxS-41" target="6ClH8MUro_-HS9Rw8stD-110">
          <mxGeometry relative="1" as="geometry">
            <mxPoint x="-275.00000000000045" y="-468" as="targetPoint" />
          </mxGeometry>
        </mxCell>
        <mxCell id="eziSc1TBYM_mBGqKbZxS-41" value="&lt;font style=&quot;font-size: 36px&quot;&gt;start game&lt;/font&gt;" style="ellipse;whiteSpace=wrap;html=1;aspect=fixed;fillColor=#f8cecc;strokeColor=#b85450;" vertex="1" parent="1">
          <mxGeometry x="-270" y="-515" width="120" height="120" as="geometry" />
        </mxCell>
        <mxCell id="6ClH8MUro_-HS9Rw8stD-135" value="user select" style="text;html=1;strokeColor=none;fillColor=none;align=center;verticalAlign=middle;whiteSpace=wrap;rounded=0;glass=0;fontSize=29;fontColor=#000000;" parent="1" vertex="1">
          <mxGeometry x="-45" y="-910.5" width="200" height="20" as="geometry" />
        </mxCell>
      </root>
    </mxGraphModel>
  </diagram>
</mxfile>
